<?xml version="1.0" standalone="no"?><!DOCTYPE svg PUBLIC "-//W3C//DTD SVG 1.1//EN" "http://www.w3.org/Graphics/SVG/1.1/DTD/svg11.dtd"><svg t="1694679053243" class="icon" viewBox="0 0 1024 1024" version="1.1" xmlns="http://www.w3.org/2000/svg" p-id="3163" width="128" height="128" data-spm-anchor-id="a313x.search_index.0.i6.2bc33a81KDO86M" xmlns:xlink="http://www.w3.org/1999/xlink"><path d="M391.2 331.2c-9.6 12-7.2 28.8 4.8 37.6h0.8l-0.8 1.6h91.2l-56.8-44c-12.8-8.8-30.4-6.4-39.2 4.8z m204-4l-56 44h89.6l-0.8-0.8h0.8c11.2-9.6 13.6-26.4 4.8-37.6-8.8-12-25.6-14.4-38.4-5.6 0.8 0 0 0 0 0z" p-id="3164" fill="#ffffff"></path><path d="M512 102.4c-283.2 0-409.6 126.4-409.6 409.6s126.4 409.6 409.6 409.6 409.6-126.4 409.6-409.6S795.2 102.4 512 102.4z m225.6 366.4h-23.2v192c0 40-25.6 72.8-56.8 73.6H368c-32 0-57.6-32-57.6-72V468.8h-23.2c-7.2-10.4-12-22.4-12-36 0-33.6 27.2-61.6 61.6-61.6h22.4c-12.8-29.6 0.8-64 30.4-76.8 19.2-8 41.6-5.6 58.4 7.2l0.8 0.8 64 49.6 63.2-49.6 0.8-0.8c25.6-19.2 61.6-14.4 81.6 10.4 13.6 17.6 16 40 8 58.4H688c33.6 0 61.6 27.2 61.6 61.6 0 14.4-4.8 26.4-12 36.8z" p-id="3165" fill="#ffffff" data-spm-anchor-id="a313x.search_index.0.i5.2bc33a81KDO86M"></path><path d="M510.4 592c-5.6 0-10.4 1.6-13.6 4.8-3.2 3.2-5.6 8-5.6 12.8 0 4.8 1.6 9.6 4.8 12.8 3.2 3.2 8 4.8 13.6 4.8s10.4-1.6 13.6-4.8c3.2-3.2 4.8-7.2 4.8-12.8 0-4.8-1.6-9.6-5.6-12.8-2.4-3.2-6.4-4.8-12-4.8zM512.8 454.4c-16 0-28.8 4-38.4 12.8-9.6 8-14.4 20-14.4 35.2h33.6c0-6.4 1.6-11.2 5.6-14.4 3.2-3.2 8-5.6 13.6-5.6 12 0 18.4 6.4 18.4 20 0 4-0.8 8.8-3.2 12.8-2.4 4-7.2 8.8-14.4 15.2-7.2 6.4-12 12.8-14.4 19.2-2.4 6.4-4 15.2-4 25.6h29.6l0.8-7.2c0.8-8 4-14.4 10.4-20l9.6-8.8c7.2-7.2 12.8-13.6 15.2-19.2 3.2-5.6 4.8-12 4.8-18.4 0-14.4-4.8-25.6-13.6-33.6-10.4-9.6-23.2-13.6-39.2-13.6z" p-id="3166" fill="#ffffff"></path></svg>